<svg width="102" height="34" viewBox="0 0 102 34" fill="none" xmlns="http://www.w3.org/2000/svg">
<g clip-path="url(#clip0)">
<path d="M101.237 28.7218C101.237 31.177 99.2386 33.1875 96.7547 33.1875H4.48262C1.99874 33.1875 0 31.177 0 28.7218V4.65323C0 2.17871 1.99874 0.1875 4.48262 0.1875H96.7741C99.2386 0.1875 101.257 2.17871 101.257 4.65323V28.7218H101.237Z" fill="black"/>
<path d="M26.3912 21.9942C25.8478 23.1735 25.5956 23.7148 24.9164 24.7587C23.9461 26.228 22.5878 28.0452 20.9189 28.0452C19.4247 28.0645 19.0366 27.0786 17.0184 27.0786C15.0003 27.0979 14.5734 28.0452 13.0792 28.0452C11.3909 28.0259 10.0908 26.402 9.1399 24.9327C6.44257 20.8536 6.17089 16.0592 7.82034 13.5074C9.00406 11.6902 10.867 10.6462 12.6134 10.6462C14.3987 10.6462 15.5242 11.6128 16.999 11.6128C18.435 11.6128 19.3083 10.6462 21.3652 10.6462C22.9176 10.6462 24.5671 11.4969 25.7508 12.9468C21.8892 15.054 22.5101 20.525 26.3912 21.9942Z" fill="white"/>
<path d="M19.7934 9.00299C20.5502 8.03638 21.1129 6.70246 20.8995 5.31055C19.677 5.38788 18.241 6.16116 17.4065 7.18577C16.6497 8.09438 16.0288 9.46696 16.2616 10.7815C17.6006 10.8202 18.9784 10.0276 19.7934 9.00299Z" fill="white"/>
<path d="M34.5996 13.4509L30.7379 24.7602H32.5038L33.6487 21.2805H37.3745L38.5582 24.7602H40.3823L36.5013 13.4509H34.5996ZM35.5116 15.3068C35.6474 15.8095 35.7833 16.3314 35.9579 16.9114L37.0058 19.9079H34.0562L35.0847 16.8921C35.2399 16.3894 35.3758 15.8674 35.5116 15.3068Z" fill="white"/>
<path d="M45.3889 16.3877C44.2245 16.3877 43.2737 16.8323 42.6527 17.7023L42.5751 16.581H41.0033V16.7163C41.0421 17.4123 41.0615 18.1856 41.0615 19.2875V28.0063H42.7885V23.9466C43.3125 24.5845 44.1663 24.9518 45.1366 24.9518C46.1457 24.9518 47.0577 24.5652 47.7369 23.8499C48.4937 23.0573 48.8818 21.9167 48.8818 20.5634C48.8818 19.3648 48.5325 18.3209 47.8921 17.567C47.2712 16.7937 46.3785 16.3877 45.3889 16.3877ZM44.9619 17.7989C46.495 17.7989 47.1741 19.2102 47.1741 20.6214C47.1741 22.4193 46.3009 23.5406 44.8843 23.5406C43.9141 23.5406 43.099 22.8833 42.8662 21.9554C42.8274 21.8007 42.808 21.6267 42.808 21.3947V20.0221C42.808 19.9061 42.8274 19.7515 42.8662 19.5968C42.8662 19.5582 42.8856 19.5002 42.8856 19.4615C43.1378 18.4756 43.9917 17.7989 44.9619 17.7989Z" fill="white"/>
<path d="M54.2377 16.3877C53.0734 16.3877 52.1225 16.8323 51.5016 17.7023L51.4239 16.581H49.8715V16.7163C49.9103 17.4123 49.9297 18.1856 49.9297 19.2875V28.0063H51.6568V23.9466C52.1808 24.5845 53.0346 24.9518 54.0048 24.9518C55.0139 24.9518 55.926 24.5652 56.6052 23.8499C57.362 23.0573 57.7501 21.9167 57.7501 20.5634C57.7501 19.3648 57.4008 18.3209 56.7604 17.567C56.12 16.7937 55.2274 16.3877 54.2377 16.3877ZM53.8108 17.7989C55.3438 17.7989 56.023 19.2102 56.023 20.6214C56.023 22.4193 55.1498 23.5406 53.7332 23.5406C52.7823 23.5406 51.9479 22.8833 51.715 21.9554C51.6762 21.8007 51.6568 21.6267 51.6568 21.3947V20.0221C51.6568 19.9061 51.6762 19.7515 51.715 19.5968C51.715 19.5582 51.7344 19.5002 51.7344 19.4615C51.9867 18.4756 52.8405 17.7989 53.8108 17.7989Z" fill="white"/>
<path d="M65.3182 18.2436C63.7076 17.6249 63.203 17.1416 63.203 16.233C63.203 15.4791 63.8046 14.7058 65.163 14.7058C66.2691 14.7058 66.9871 15.0924 67.1811 15.2084L67.3363 15.3051L67.8215 13.8745L67.7245 13.8165C67.4334 13.6425 66.6184 13.2559 65.2212 13.2559C63.0284 13.2559 61.4954 14.5511 61.4954 16.3877C61.4954 17.8762 62.4462 18.9202 64.5032 19.6548C65.9586 20.1961 66.5019 20.7567 66.5019 21.704C66.5019 22.7866 65.6675 23.4439 64.3091 23.4439C63.4359 23.4439 62.5238 23.1926 61.8253 22.7479L61.67 22.6513L61.2043 24.1205L61.2819 24.1785C61.9223 24.6038 63.1448 24.9131 64.1927 24.9131C67.1423 24.9131 68.1902 23.1153 68.1902 21.588C68.2096 20.0221 67.3752 19.0555 65.3182 18.2436Z" fill="white"/>
<path d="M71.2948 14.6091L69.6065 15.1311V16.5617H68.3646V17.9343H69.6065V22.1293C69.6065 23.1346 69.8006 23.8499 70.2081 24.2945C70.5962 24.7198 71.1784 24.9518 71.8769 24.9518C72.5173 24.9518 72.9831 24.8165 73.1965 24.7392L73.2935 24.7005L73.2159 23.3279L73.0607 23.3859C72.8472 23.4439 72.6143 23.4826 72.2651 23.4826C71.6053 23.4826 71.3142 23.0573 71.3142 22.0713V17.9343H73.3906V16.5617H71.3142V14.6091H71.2948Z" fill="white"/>
<path d="M77.6405 16.3877C75.2342 16.3877 73.5654 18.1663 73.5654 20.7374C73.5654 23.2119 75.1954 24.9518 77.524 24.9518H77.5435C79.5034 24.9518 81.6186 23.5793 81.6186 20.5828C81.6186 19.3648 81.2499 18.3209 80.5319 17.5476C79.7751 16.7937 78.7854 16.3877 77.6405 16.3877ZM77.5823 17.7216C79.1347 17.7216 79.8333 19.2295 79.8333 20.6214C79.8333 22.342 78.8824 23.5793 77.5435 23.5793H77.524C76.2239 23.5793 75.273 22.3613 75.273 20.6601C75.2924 19.2102 75.991 17.7216 77.5823 17.7216Z" fill="white"/>
<path d="M86.8579 16.465L86.7609 16.4457C86.6056 16.407 86.4892 16.3877 86.3339 16.3877C85.4413 16.3877 84.6263 16.9097 84.1799 17.7603L84.1217 16.5617H82.5887L82.6081 16.697C82.6469 17.3736 82.6663 18.1276 82.6663 19.1522L82.6469 24.7392H84.374V20.3701C84.374 20.1381 84.3934 19.9061 84.4128 19.7128C84.6069 18.6689 85.3249 17.9923 86.2175 17.9923C86.3922 17.9923 86.528 18.0116 86.6832 18.0116L86.8579 18.0309V16.465Z" fill="white"/>
<path d="M90.7198 16.3684C88.4299 16.3684 86.8387 18.1856 86.8387 20.7955C86.8387 23.3087 88.4299 24.9326 90.8944 24.9326C92.1946 24.9326 93.0872 24.6426 93.6111 24.4106L93.7082 24.3719L93.3783 23.096L93.2424 23.154C92.7767 23.3473 92.1557 23.5406 91.0885 23.5406C90.3511 23.5406 88.624 23.2893 88.5076 21.0661L94.0575 21.0855L94.0769 20.9695C94.1157 20.7955 94.1351 20.5635 94.1351 20.2542C94.1351 18.4563 93.2424 16.3684 90.7198 16.3684ZM90.6033 17.6637C91.1273 17.6637 91.5542 17.8183 91.8647 18.147C92.3498 18.6496 92.4468 19.3842 92.4468 19.7322H88.527C88.7016 18.7463 89.3226 17.6637 90.6033 17.6637Z" fill="white"/>
<path d="M30.7379 5.71658C31.223 5.65858 31.7664 5.60059 32.3874 5.60059C33.4935 5.60059 34.2891 5.83257 34.813 6.25788C35.3564 6.70252 35.6669 7.32115 35.6669 8.1911C35.6669 9.06104 35.3564 9.77633 34.813 10.279C34.2503 10.7816 33.3188 11.0523 32.1739 11.0523C31.6112 11.0523 31.1648 11.0329 30.7573 10.9943V5.71658H30.7379ZM31.5335 10.4723C31.7276 10.511 32.0187 10.511 32.3097 10.511C33.9592 10.511 34.8518 9.67967 34.8518 8.24909C34.8518 6.97317 34.0562 6.18055 32.4262 6.18055C32.0187 6.18055 31.7276 6.21922 31.5141 6.25788V10.4723H31.5335Z" fill="white"/>
<path d="M38.4224 11.0907C37.2775 11.0907 36.3654 10.3367 36.3654 9.11879C36.3654 7.82354 37.3163 7.06958 38.5 7.06958C39.7225 7.06958 40.557 7.8622 40.557 9.04146C40.557 10.472 39.4509 11.0907 38.4224 11.0907ZM38.4418 10.5687C39.1792 10.5687 39.7419 9.95007 39.7419 9.06079C39.7419 8.4035 39.3732 7.59155 38.4612 7.59155C37.5491 7.59155 37.1416 8.3455 37.1416 9.08013C37.161 9.93074 37.685 10.5687 38.4418 10.5687Z" fill="white"/>
<path d="M41.7987 7.1663L42.3809 9.11885C42.4973 9.54416 42.6137 9.95014 42.6914 10.3561H42.7108C42.8078 9.96947 42.9436 9.56349 43.0989 9.13819L43.7975 7.18564H44.4572L45.117 9.09952C45.2723 9.54416 45.4081 9.96947 45.5051 10.3561H45.5245C45.6022 9.96947 45.7186 9.56349 45.8544 9.09952L46.456 7.1663H47.2322L45.8544 11.0134H45.1364L44.4766 9.17685C44.3214 8.73221 44.205 8.3649 44.0885 7.90093H44.0691C43.9721 8.3649 43.8363 8.77087 43.681 9.17685L42.9824 10.9941H42.2644L40.9643 7.14697H41.7987V7.1663Z" fill="white"/>
<path d="M48.0086 8.19089C48.0086 7.78492 48.0086 7.4756 47.9698 7.14695H48.6684L48.7072 7.76558H48.7266C48.9401 7.4176 49.4446 7.05029 50.1432 7.05029C50.7448 7.05029 51.6568 7.35961 51.6568 8.69353V10.9941H50.8806V8.79019C50.8806 8.17156 50.6283 7.64959 49.8909 7.64959C49.3864 7.64959 48.9789 7.97824 48.843 8.36488C48.8042 8.46154 48.7848 8.57753 48.7848 8.69353V11.0134H48.0086V8.19089Z" fill="white"/>
<path d="M52.9182 5.36841H53.6945V11.0134H52.9182V5.36841Z" fill="white"/>
<path d="M56.741 11.0907C55.5961 11.0907 54.6841 10.3367 54.6841 9.11879C54.6841 7.82354 55.6349 7.06958 56.8186 7.06958C58.0412 7.06958 58.8756 7.8622 58.8756 9.04146C58.8756 10.472 57.7695 11.0907 56.741 11.0907ZM56.7604 10.5687C57.4978 10.5687 58.0606 9.95007 58.0606 9.06079C58.0606 8.4035 57.6919 7.59155 56.7798 7.59155C55.8678 7.59155 55.4603 8.3455 55.4603 9.08013C55.4797 9.93074 56.0036 10.5687 56.7604 10.5687Z" fill="white"/>
<path d="M62.8729 10.0856C62.8729 10.4142 62.8923 10.7428 62.9311 11.0135H62.2325L62.1549 10.5302H62.1355C61.9026 10.8395 61.4369 11.1102 60.8159 11.1102C59.9427 11.1102 59.4964 10.5689 59.4964 10.0082C59.4964 9.08028 60.4084 8.57764 62.0773 8.57764V8.50031C62.0773 8.191 61.9802 7.61103 61.107 7.61103C60.6995 7.61103 60.292 7.7077 59.9815 7.90102L59.8069 7.43705C60.1561 7.24372 60.6801 7.1084 61.2234 7.1084C62.543 7.1084 62.8535 7.90102 62.8535 8.6743V10.0856H62.8729ZM62.1161 9.04161C61.2622 9.02228 60.292 9.15761 60.292 9.91156C60.292 10.3755 60.6219 10.5882 61.01 10.5882C61.5727 10.5882 61.9414 10.2789 62.0579 9.95023C62.0773 9.8729 62.0967 9.79557 62.0967 9.71824V9.04161H62.1161Z" fill="white"/>
<path d="M67.8214 5.36841V10.0081C67.8214 10.3561 67.8214 10.7427 67.8602 10.9941H67.1617L67.1228 10.3174H67.1034C66.8706 10.7427 66.3466 11.0714 65.648 11.0714C64.6196 11.0714 63.8045 10.2788 63.8045 9.11885C63.8045 7.82359 64.6972 7.05031 65.7257 7.05031C66.3854 7.05031 66.8318 7.32096 67.0258 7.63027H67.0452V5.36841H67.8214ZM67.0452 8.7322C67.0452 8.63554 67.0452 8.51955 67.0064 8.42289C66.89 7.97825 66.4631 7.63027 65.8809 7.63027C65.0659 7.63027 64.6002 8.26823 64.6002 9.09951C64.6002 9.89213 65.0271 10.5301 65.8615 10.5301C66.3854 10.5301 66.8706 10.2208 67.0064 9.69881C67.0258 9.60215 67.0452 9.50549 67.0452 9.3895V8.7322Z" fill="white"/>
<path d="M72.7503 11.0907C71.6054 11.0907 70.6934 10.3367 70.6934 9.11879C70.6934 7.82354 71.6442 7.06958 72.8279 7.06958C74.0505 7.06958 74.8849 7.8622 74.8849 9.04146C74.8849 10.472 73.7788 11.0907 72.7503 11.0907ZM72.7697 10.5687C73.5071 10.5687 74.0699 9.95007 74.0699 9.06079C74.0699 8.4035 73.7012 7.59155 72.7891 7.59155C71.8771 7.59155 71.4696 8.3455 71.4696 9.08013C71.4696 9.93074 72.0129 10.5687 72.7697 10.5687Z" fill="white"/>
<path d="M75.8552 8.19089C75.8552 7.78492 75.8552 7.4756 75.8164 7.14695H76.515L76.5538 7.76558H76.5732C76.7867 7.4176 77.2912 7.05029 77.9898 7.05029C78.5914 7.05029 79.5034 7.35961 79.5034 8.69353V10.9941H78.7272V8.79019C78.7272 8.17156 78.4749 7.64959 77.7375 7.64959C77.233 7.64959 76.8255 7.97824 76.6896 8.36488C76.6508 8.46154 76.6314 8.57753 76.6314 8.69353V11.0134H75.8552V8.19089Z" fill="white"/>
<path d="M83.5979 6.23828V7.16623H84.7234V7.70753H83.5979V9.77607C83.5979 10.2594 83.7531 10.53 84.18 10.53C84.3935 10.53 84.5099 10.5107 84.6263 10.4914L84.6651 11.0327C84.5099 11.0713 84.277 11.1293 83.9666 11.1293C83.5979 11.1293 83.3068 11.0133 83.1321 10.8393C82.9187 10.6267 82.8216 10.2787 82.8216 9.83407V7.68819H82.1619V7.14689H82.8216V6.4316L83.5979 6.23828Z" fill="white"/>
<path d="M85.5967 5.36841H86.3729V7.7656H86.3923C86.5087 7.57227 86.7028 7.37895 86.955 7.28229C87.1879 7.14697 87.4596 7.08897 87.7507 7.08897C88.3328 7.08897 89.2449 7.39829 89.2449 8.7322V11.0134H88.4686V8.7902C88.4686 8.17157 88.2164 7.6496 87.479 7.6496C86.9744 7.6496 86.5863 7.95892 86.4311 8.34556C86.3923 8.44222 86.3729 8.53888 86.3729 8.67421V10.9941H85.5967V5.36841Z" fill="white"/>
<path d="M90.9525 9.19616C90.9719 10.1434 91.6317 10.5301 92.4079 10.5301C92.9707 10.5301 93.32 10.4334 93.5917 10.3368L93.7275 10.8201C93.4558 10.9361 92.9707 11.0714 92.2915 11.0714C90.9719 11.0714 90.1763 10.2788 90.1763 9.13817C90.1763 7.97824 90.9525 7.05029 92.1945 7.05029C93.5917 7.05029 93.9604 8.15223 93.9604 8.86752C93.9604 9.00284 93.9604 9.11883 93.941 9.19616H90.9525ZM93.223 8.69353C93.223 8.24889 93.0095 7.55293 92.1557 7.55293C91.3601 7.55293 91.0302 8.21022 90.9525 8.69353H93.223Z" fill="white"/>
</g>
<defs>
<clipPath id="clip0">
<rect width="101.237" height="33" fill="white" transform="translate(0 0.1875)"/>
</clipPath>
</defs>
</svg>
