<svg width="100" height="34" viewBox="0 0 100 34" fill="none" xmlns="http://www.w3.org/2000/svg">
<g clip-path="url(#clip0)">
<path d="M99.2373 28.8054C99.2373 31.2293 97.2825 33.1877 94.8631 33.1877H4.6115C2.19214 33.1877 0.237305 31.2293 0.237305 28.8054V5.12937C0.237305 2.70553 2.19214 0.74707 4.6115 0.74707H94.8631C97.2825 0.74707 99.2373 2.70553 99.2373 5.12937V28.8054Z" fill="black"/>
<path d="M7.66928 6.99146V17.986V28.9612L18.7209 17.986L7.66928 6.99146Z" fill="url(#paint0_linear)"/>
<path d="M21.6822 15.0187L17.2306 12.4397L7.66928 6.91333V6.99089L18.7209 17.9854L21.6822 15.0187Z" fill="url(#paint1_linear)"/>
<path d="M7.66928 28.9605V29.0381L17.2306 23.5117L21.6822 20.9327L18.7209 17.9854L7.66928 28.9605Z" fill="url(#paint2_linear)"/>
<path d="M21.6822 15.0186L18.7209 17.9853L21.6822 20.9327L26.7919 17.9853L21.6822 15.0186Z" fill="url(#paint3_linear)"/>
<path d="M77.2887 22.2709C76.8823 22.2709 76.4952 22.1934 76.1468 22.0382C75.7984 21.8831 75.5081 21.6504 75.2758 21.3208H75.1984C75.2371 21.6892 75.2758 22.0382 75.2758 22.3873V25.0244H74.3081V15.775H75.1016L75.2371 16.6476H75.2758C75.5275 16.2986 75.8178 16.0465 76.1468 15.8914C76.4758 15.7363 76.8629 15.6587 77.2887 15.6587C78.1404 15.6587 78.7791 15.9496 79.2436 16.5313C79.7081 17.113 79.9404 17.9274 79.9404 18.9745C79.9404 20.0216 79.7081 20.836 79.2436 21.4177C78.7597 21.9801 78.1016 22.2709 77.2887 22.2709ZM77.1339 16.4731C76.4758 16.4731 76.0113 16.6476 75.721 17.016C75.4307 17.3845 75.2758 17.9468 75.2758 18.7418V18.9551C75.2758 19.8471 75.4307 20.487 75.721 20.8748C76.0113 21.2626 76.4952 21.4565 77.1533 21.4565C77.6952 21.4565 78.1404 21.2238 78.45 20.7778C78.7597 20.3319 78.9146 19.7114 78.9146 18.9357C78.9146 18.1407 78.7597 17.5202 78.45 17.0936C78.1404 16.6864 77.7145 16.4731 77.1339 16.4731Z" fill="#F9F9F9"/>
<path d="M82.1663 22.1544H81.1985V13.0796H82.1663V22.1544Z" fill="#F9F9F9"/>
<path d="M87.721 22.1546L87.5274 21.2432H87.4887C87.179 21.6504 86.85 21.9219 86.5403 22.0576C86.2306 22.1934 85.8242 22.2709 85.3597 22.2709C84.7209 22.2709 84.2371 22.1158 83.8693 21.7862C83.5016 21.4565 83.3274 20.9911 83.3274 20.39C83.3274 19.0908 84.3532 18.4316 86.4242 18.354L87.508 18.3152V17.9274C87.508 17.4232 87.3919 17.0548 87.179 16.8221C86.9661 16.5894 86.6177 16.4731 86.1532 16.4731C85.6306 16.4731 85.0113 16.6282 84.3532 16.9579L84.0629 16.221C84.3726 16.0465 84.7209 15.9108 85.0887 15.8138C85.4564 15.7169 85.8435 15.6587 86.2113 15.6587C86.9661 15.6587 87.5274 15.8332 87.8951 16.1628C88.2629 16.4925 88.4371 17.0354 88.4371 17.7917V22.1546H87.721ZM85.5339 21.4759C86.1339 21.4759 86.5984 21.3014 86.9468 20.9717C87.2951 20.6421 87.4693 20.1767 87.4693 19.5756V18.9939L86.5016 19.0327C85.7274 19.0521 85.1855 19.1878 84.8371 19.4011C84.4887 19.6144 84.3338 19.944 84.3338 20.39C84.3338 20.7391 84.4306 21.0105 84.6435 21.185C84.8564 21.379 85.1468 21.4759 85.5339 21.4759Z" fill="#F9F9F9"/>
<path d="M88.9982 15.7749H90.024L91.4176 19.4204C91.7273 20.2542 91.9208 20.8553 91.9789 21.2237H92.0176C92.0756 21.0298 92.1724 20.6808 92.3273 20.2154C92.4821 19.7306 93.024 18.2569 93.9143 15.7943H94.9595L92.2305 23.0464C91.9595 23.7639 91.6498 24.268 91.2821 24.5783C90.9144 24.8885 90.4692 25.0243 89.9466 25.0243C89.6563 25.0243 89.366 24.9855 89.0756 24.9273V24.1517C89.2886 24.1905 89.5208 24.2293 89.7918 24.2293C90.4498 24.2293 90.9337 23.8608 91.2047 23.1046L91.5531 22.1932L88.9982 15.7749Z" fill="#F9F9F9"/>
<path d="M59.3857 16.3566C59.6954 16.6087 60.3341 17.1516 60.3341 18.1599C60.3341 19.1489 59.7728 19.6142 59.2115 20.0602C59.0373 20.2347 58.8438 20.4286 58.8438 20.7195C58.8438 21.0104 59.0373 21.1655 59.1922 21.3012L59.676 21.6697C60.2567 22.1738 60.7986 22.6198 60.7986 23.5506C60.7986 24.8109 59.5793 26.0713 57.2954 26.0713C55.3599 26.0713 54.4309 25.1406 54.4309 24.1517C54.4309 23.6669 54.6631 22.9882 55.4567 22.5228C56.2889 22.0187 57.4115 21.9411 58.0115 21.9023C57.818 21.6697 57.6051 21.4176 57.6051 20.991C57.6051 20.7583 57.6631 20.6226 57.7406 20.4674C57.5857 20.4868 57.4502 20.4868 57.3147 20.4868C55.9018 20.4868 55.1083 19.4397 55.1083 18.3926C55.1083 17.7721 55.3793 17.0934 55.9599 16.6087C56.7147 15.9882 57.6244 15.8718 58.3406 15.8718H61.0889L60.2373 16.3566H59.3857ZM58.4373 22.2902C58.3212 22.2708 58.2631 22.2708 58.1277 22.2708C58.0115 22.2708 57.2954 22.2902 56.7341 22.4841C56.4438 22.581 55.5922 22.9107 55.5922 23.8608C55.5922 24.8109 56.5212 25.4896 57.9341 25.4896C59.2115 25.4896 59.8889 24.8691 59.8889 24.0547C59.8889 23.376 59.4631 23.0076 58.4373 22.2902ZM58.8244 19.75C59.1341 19.4397 59.1535 19.0131 59.1535 18.7804C59.1535 17.8109 58.5728 16.3178 57.4696 16.3178C57.1212 16.3178 56.7535 16.4923 56.5406 16.7638C56.3083 17.0353 56.2502 17.4037 56.2502 17.7527C56.2502 18.6447 56.7728 20.1378 57.9147 20.1378C58.2631 20.1378 58.6115 19.9633 58.8244 19.75Z" fill="#F9F9F9"/>
<path d="M50.9857 22.0771C48.876 22.0771 47.734 20.4288 47.734 18.9358C47.734 17.1906 49.1663 15.6975 51.1792 15.6975C53.134 15.6975 54.3534 17.2294 54.3534 18.8388C54.3728 20.4095 53.1534 22.0771 50.9857 22.0771ZM52.6502 20.9912C52.9792 20.5646 53.0566 20.0216 53.0566 19.5175C53.0566 18.3346 52.4953 16.1047 50.8502 16.1047C50.405 16.1047 49.9792 16.2792 49.6502 16.5507C49.1276 17.0161 49.0308 17.5978 49.0308 18.1795C49.0308 19.4981 49.6889 21.6699 51.2953 21.6699C51.8179 21.6892 52.3405 21.4178 52.6502 20.9912Z" fill="#F9F9F9"/>
<path d="M43.766 22.0771C41.6564 22.0771 40.5144 20.4288 40.5144 18.9358C40.5144 17.1906 41.9467 15.6975 43.9596 15.6975C45.9144 15.6975 47.1338 17.2294 47.1338 18.8388C47.1531 20.4095 45.9338 22.0771 43.766 22.0771ZM45.4306 20.9912C45.7596 20.5646 45.837 20.0216 45.837 19.5175C45.837 18.3346 45.2757 16.1047 43.6306 16.1047C43.1854 16.1047 42.7596 16.2792 42.4306 16.5507C41.908 17.0161 41.8112 17.5978 41.8112 18.1795C41.8112 19.4981 42.4693 21.6699 44.0757 21.6699C44.5983 21.6892 45.1209 21.4178 45.4306 20.9912Z" fill="#F9F9F9"/>
<path d="M39.5082 21.8638L37.5921 22.3098C36.8179 22.4261 36.1211 22.5425 35.3856 22.5425C31.6888 22.5425 30.2759 19.8278 30.2759 17.6948C30.2759 15.0964 32.2695 12.6726 35.6759 12.6726C36.3921 12.6726 37.0888 12.789 37.7276 12.9635C38.734 13.2543 39.1985 13.584 39.4889 13.7973L38.3856 14.8638L37.9211 14.9801L38.2501 14.4372C37.7856 13.9912 36.9727 13.1768 35.3856 13.1768C33.2759 13.1768 31.6695 14.7862 31.6695 17.1325C31.6695 19.6533 33.4888 22.0189 36.4114 22.0189C37.263 22.0189 37.7082 21.8444 38.1147 21.6893V19.5175L36.1018 19.6339L37.1663 19.0522H40.0114L39.663 19.3818C39.5663 19.4594 39.5469 19.4981 39.5276 19.5951C39.5082 19.7114 39.5082 20.0993 39.5082 20.235V21.8638Z" fill="#F9F9F9"/>
<path d="M63.6244 21.4758C63.1792 21.4371 63.0824 21.3595 63.0824 20.8359V20.6808V13.2542C63.0824 13.2348 63.0824 13.196 63.0824 13.1766C63.1405 12.7112 63.276 12.6337 63.6824 12.3816H61.7856L60.7792 12.8664H61.805V20.7002V21.1462C61.805 21.4177 61.7469 21.4565 61.4372 21.8637H63.7985L64.3018 21.5728C64.0695 21.534 63.8566 21.5146 63.6244 21.4758Z" fill="#F9F9F9"/>
<path d="M69.063 21.6115C68.9082 21.6891 68.7727 21.7861 68.6179 21.8442C68.1727 22.0381 67.7275 22.0963 67.3211 22.0963C66.8953 22.0963 66.2372 22.0769 65.5598 21.5728C64.6114 20.9135 64.205 19.7694 64.205 18.7611C64.205 16.7057 65.8888 15.678 67.2437 15.678C67.7275 15.678 68.2114 15.7943 68.6179 16.0464C69.2759 16.4924 69.4501 17.0547 69.5469 17.365L66.4308 18.6448L65.405 18.7223C65.734 20.4093 66.8759 21.3982 68.1533 21.3982C68.8308 21.3982 69.3146 21.1656 69.7791 20.9329L69.063 21.6115ZM67.8243 17.6364C68.0759 17.5395 68.2114 17.4619 68.2114 17.268C68.2114 16.7445 67.6114 16.124 66.8953 16.124C66.3533 16.124 65.3662 16.5312 65.3662 17.9661C65.3662 18.1988 65.3856 18.4315 65.405 18.6641L67.8243 17.6364Z" fill="#F9F9F9"/>
<path d="M70.3601 15.7945V16.6675H70.2439V15.7945H69.9534V15.6975H70.6311V15.7945H70.3601Z" fill="#F9F9F9"/>
<path d="M71.5412 16.6675V15.7751L71.2702 16.6675H71.1927L70.9216 15.7751V16.6675H70.8248V15.6975H70.9991L71.2508 16.4735L71.5025 15.6975H71.6768V16.6675H71.5412Z" fill="#F9F9F9"/>
<path d="M32.9468 10.0558H32.2888C32.2888 9.95881 32.2307 9.70673 32.0952 9.28014H31.1275C30.992 9.70673 30.9339 9.95881 30.9339 10.0558H30.3146C30.3146 9.9976 30.4694 9.55161 30.7984 8.71781C31.1275 7.884 31.2823 7.41863 31.2823 7.34106H32.0759C32.0759 7.41863 32.2307 7.86461 32.521 8.69842C32.792 9.53222 32.9468 9.9782 32.9468 10.0558ZM31.9791 8.87293C31.7468 8.15548 31.6307 7.76766 31.6307 7.70949H31.592C31.592 7.76766 31.4759 8.15548 31.2243 8.87293H31.9791Z" fill="#F9F9FA"/>
<path d="M35.6176 10.0546H35.0951C35.0951 9.99648 34.9015 9.70562 34.5144 9.14328C34.108 8.56156 33.8951 8.17375 33.837 7.96045H33.7983C33.837 8.2707 33.8564 8.54217 33.8564 8.79425C33.8564 9.14328 33.8564 9.55049 33.8951 10.0546H33.3918C33.4112 9.62805 33.4306 9.14328 33.4306 8.63913C33.4306 8.13497 33.4112 7.70837 33.3918 7.33995H34.0112C34.0112 7.41751 34.1854 7.70837 34.5338 8.21253C34.9015 8.75547 35.1144 9.12389 35.1531 9.3178H35.1918C35.1531 9.00755 35.1338 8.73608 35.1338 8.484C35.1338 8.11558 35.1144 7.72776 35.0951 7.32056H35.6176C35.5983 7.66959 35.5789 8.09618 35.5789 8.61973C35.5983 9.16267 35.5983 9.62805 35.6176 10.0546Z" fill="#F9F9FA"/>
<path d="M38.6373 8.60024C38.6373 8.98806 38.5018 9.33709 38.2502 9.62795C37.9986 9.91881 37.6502 10.0739 37.1857 10.0739C36.9728 10.0739 36.7018 10.0739 36.3341 10.0545C36.3534 9.62795 36.3534 9.16257 36.3534 8.63902C36.3534 8.13486 36.3534 7.70827 36.3341 7.33984H36.7018C36.7599 7.33984 36.8567 7.33984 36.9728 7.33984C37.0889 7.33984 37.1663 7.33984 37.205 7.33984C37.7083 7.33984 38.076 7.45619 38.2889 7.70827C38.5212 7.96035 38.6373 8.25121 38.6373 8.60024ZM38.0567 8.69719C38.0567 8.42572 37.9792 8.21243 37.8244 8.01852C37.6696 7.844 37.4373 7.74705 37.1083 7.74705C37.0502 7.74705 36.9728 7.74705 36.8567 7.76644C36.876 8.03791 36.876 8.32877 36.876 8.63902C36.876 8.96867 36.876 9.29831 36.8954 9.62795C36.9921 9.64734 37.0696 9.64734 37.1663 9.64734C37.4567 9.64734 37.6889 9.55039 37.8244 9.37587C37.9986 9.18196 38.0567 8.96866 38.0567 8.69719Z" fill="#F9F9FA"/>
<path d="M41.4049 10.0545H40.7855C40.6307 9.56978 40.4952 9.25953 40.4178 9.14318C40.3404 9.02684 40.1855 8.96866 40.0114 8.96866C39.9339 8.96866 39.8565 8.96866 39.7791 8.96866C39.7791 9.3177 39.7791 9.68612 39.7984 10.0545H39.2178C39.2372 9.62795 39.2372 9.16257 39.2372 8.63902C39.2372 8.13486 39.2372 7.70827 39.2178 7.33984H39.5855C39.6243 7.33984 39.721 7.33984 39.8372 7.33984C39.9726 7.33984 40.0888 7.33984 40.2049 7.33984C40.8436 7.33984 41.1533 7.55314 41.1533 7.99913C41.1533 8.34816 40.9791 8.58085 40.6114 8.71658V8.75537C40.7468 8.79415 40.8823 8.91049 40.9791 9.08501C41.0952 9.24013 41.2307 9.56978 41.4049 10.0545ZM40.6307 8.13486C40.6307 7.86339 40.4565 7.72766 40.0888 7.72766C39.9533 7.72766 39.8372 7.72766 39.7404 7.76644C39.7597 7.97974 39.7597 8.2706 39.7597 8.60024C39.8372 8.60024 39.8952 8.60024 39.9533 8.60024C40.4178 8.60024 40.6307 8.44511 40.6307 8.13486Z" fill="#F9F9FA"/>
<path d="M44.3856 8.65848C44.3856 9.08507 44.2501 9.43411 43.9985 9.72497C43.7469 9.99644 43.4179 10.1516 43.0308 10.1516C42.663 10.1516 42.3534 10.0158 42.1211 9.76375C41.8695 9.51167 41.7534 9.18203 41.7534 8.77482C41.7534 8.34823 41.8888 7.99919 42.1405 7.70833C42.3921 7.43686 42.7211 7.28174 43.1082 7.28174C43.4759 7.28174 43.7856 7.41747 44.0179 7.66955C44.2695 7.92163 44.3856 8.25127 44.3856 8.65848ZM43.8243 8.71665C43.8243 8.42579 43.7469 8.1931 43.6114 8.01858C43.4566 7.84407 43.2824 7.74711 43.0695 7.74711C42.8759 7.74711 42.7017 7.84407 42.5469 8.01858C42.4114 8.1931 42.334 8.42579 42.334 8.71665C42.334 9.00751 42.4114 9.2402 42.5663 9.41472C42.7211 9.58923 42.8953 9.68618 43.1082 9.68618C43.3017 9.68618 43.4759 9.58923 43.6308 9.41472C43.7469 9.22081 43.8243 8.98812 43.8243 8.71665Z" fill="#F9F9FA"/>
<path d="M45.5662 10.0545H44.9856C45.0049 9.62795 45.0049 9.14318 45.0049 8.63902C45.0049 8.13486 45.0049 7.70827 44.9856 7.33984H45.5662C45.5469 7.68888 45.5469 8.11547 45.5469 8.63902C45.5469 9.16257 45.5469 9.62795 45.5662 10.0545Z" fill="#F9F9FA"/>
<path d="M48.5855 8.60024C48.5855 8.98806 48.45 9.33709 48.1984 9.62795C47.9468 9.91881 47.5984 10.0739 47.1339 10.0739C46.921 10.0739 46.65 10.0739 46.2823 10.0545C46.3016 9.62795 46.3016 9.16257 46.3016 8.63902C46.3016 8.13486 46.3016 7.70827 46.2823 7.33984H46.65C46.7081 7.33984 46.8048 7.33984 46.921 7.33984C47.0371 7.33984 47.1145 7.33984 47.1532 7.33984C47.6565 7.33984 48.0242 7.45619 48.2371 7.70827C48.4694 7.96035 48.5855 8.25121 48.5855 8.60024ZM48.0048 8.69719C48.0048 8.42572 47.9274 8.21243 47.7726 8.01852C47.6177 7.844 47.3855 7.74705 47.0565 7.74705C46.9984 7.74705 46.921 7.74705 46.8048 7.76644C46.8242 8.03791 46.8242 8.32877 46.8242 8.63902C46.8242 8.96867 46.8242 9.29831 46.8435 9.62795C46.9403 9.64734 47.0177 9.64734 47.1145 9.64734C47.4048 9.64734 47.6371 9.55039 47.7726 9.37587C47.9468 9.18196 48.0048 8.96866 48.0048 8.69719Z" fill="#F9F9FA"/>
<path d="M52.5725 10.0545H51.9144C51.9144 9.95759 51.8564 9.70551 51.7209 9.27892H50.7532C50.6177 9.70551 50.5596 9.95759 50.5596 10.0545H49.9402C49.9402 9.99637 50.0951 9.55039 50.4241 8.71658C50.7531 7.88278 50.908 7.41741 50.908 7.33984H51.7015C51.7015 7.41741 51.8564 7.86339 52.1467 8.69719C52.437 9.531 52.5725 9.97698 52.5725 10.0545ZM51.6241 8.87171C51.3919 8.15425 51.2757 7.76644 51.2757 7.70827H51.237C51.237 7.76644 51.1209 8.15425 50.8693 8.87171H51.6241Z" fill="#F9F9FA"/>
<path d="M55.0113 8.0573C55.0113 8.38694 54.8952 8.63902 54.6436 8.79415C54.392 8.94927 54.1016 9.02684 53.7339 9.02684C53.6758 9.02684 53.6178 9.02684 53.5984 9.02684C53.5984 9.27892 53.5984 9.62795 53.6178 10.0545H53.0371C53.0565 9.64734 53.0565 9.18196 53.0565 8.63902C53.0565 8.13486 53.0565 7.70827 53.0371 7.33984H53.4049C53.4629 7.33984 53.5597 7.33984 53.6952 7.33984C53.85 7.33984 53.9661 7.33984 54.0823 7.33984C54.3532 7.33984 54.5661 7.39802 54.7403 7.51436C54.9145 7.6307 55.0113 7.80522 55.0113 8.0573ZM54.4694 8.17364C54.4694 7.88278 54.2758 7.72766 53.8694 7.72766C53.7726 7.72766 53.6758 7.74705 53.5597 7.76644C53.579 8.03791 53.579 8.32877 53.579 8.65841C53.6178 8.65841 53.6565 8.65841 53.6952 8.65841C54.2178 8.65841 54.4694 8.4839 54.4694 8.17364Z" fill="#F9F9FA"/>
<path d="M57.4887 8.0573C57.4887 8.38694 57.3725 8.63902 57.1209 8.79415C56.8693 8.94927 56.579 9.02684 56.2113 9.02684C56.1532 9.02684 56.0951 9.02684 56.0758 9.02684C56.0758 9.27892 56.0758 9.62795 56.0951 10.0545H55.5145C55.5339 9.64734 55.5339 9.18196 55.5339 8.63902C55.5339 8.13486 55.5339 7.70827 55.5145 7.33984H55.8822C55.9403 7.33984 56.0371 7.33984 56.1726 7.33984C56.3274 7.33984 56.4435 7.33984 56.5596 7.33984C56.8306 7.33984 57.0435 7.39802 57.2177 7.51436C57.4113 7.6307 57.4887 7.80522 57.4887 8.0573ZM56.9661 8.17364C56.9661 7.88278 56.7725 7.72766 56.3661 7.72766C56.2693 7.72766 56.1726 7.74705 56.0564 7.76644C56.0758 8.03791 56.0758 8.32877 56.0758 8.65841C56.1145 8.65841 56.1532 8.65841 56.1919 8.65841C56.7145 8.65841 56.9661 8.4839 56.9661 8.17364Z" fill="#F9F9FA"/>
<path d="M61.5726 8.65848C61.5726 9.08507 61.4371 9.43411 61.1855 9.72497C60.9339 10.0158 60.6048 10.1516 60.2177 10.1516C59.85 10.1516 59.5403 10.0158 59.3081 9.76375C59.0564 9.51167 58.9403 9.18203 58.9403 8.77482C58.9403 8.34823 59.0758 7.99919 59.3274 7.70833C59.579 7.43686 59.9081 7.28174 60.2951 7.28174C60.6629 7.28174 60.9726 7.41747 61.2048 7.66955C61.4564 7.92163 61.5726 8.25127 61.5726 8.65848ZM60.9919 8.71665C60.9919 8.42579 60.9145 8.1931 60.779 8.01858C60.6242 7.84407 60.45 7.74711 60.2371 7.74711C60.0435 7.74711 59.8693 7.84407 59.7145 8.01858C59.579 8.1931 59.5016 8.42579 59.5016 8.71665C59.5016 9.00751 59.579 9.2402 59.7339 9.41472C59.8887 9.58923 60.0629 9.68618 60.2758 9.68618C60.4693 9.68618 60.6435 9.58923 60.7984 9.41472C60.9339 9.22081 60.9919 8.98812 60.9919 8.71665Z" fill="#F9F9FA"/>
<path d="M64.3985 10.0546H63.876C63.876 9.99648 63.6824 9.70562 63.2953 9.14328C62.8889 8.56156 62.676 8.17375 62.6179 7.96045H62.5792C62.6179 8.2707 62.6373 8.54217 62.6373 8.79425C62.6373 9.14328 62.6373 9.55049 62.676 10.0546H62.1728C62.1921 9.62805 62.2115 9.14328 62.2115 8.63913C62.2115 8.13497 62.1921 7.70837 62.1728 7.33995H62.7921C62.7921 7.41751 62.9663 7.70837 63.3147 8.21253C63.6824 8.75547 63.8953 9.12389 63.934 9.3178H63.9727C63.934 9.00755 63.9147 8.73608 63.9147 8.484C63.9147 8.11558 63.9147 7.72776 63.876 7.32056H64.3985C64.3792 7.66959 64.3598 8.09618 64.3598 8.61973C64.3598 9.16267 64.3792 9.62805 64.3985 10.0546Z" fill="#F9F9FA"/>
</g>
<defs>
<linearGradient id="paint0_linear" x1="13.1915" y1="6.99359" x2="13.1915" y2="28.9638" gradientUnits="userSpaceOnUse">
<stop stop-color="#257CB0"/>
<stop offset="0.2863" stop-color="#4A93B5"/>
<stop offset="0.767" stop-color="#78BCBB"/>
<stop offset="1" stop-color="#89CFBD"/>
</linearGradient>
<linearGradient id="paint1_linear" x1="7.66247" y1="12.4457" x2="21.6908" y2="12.4457" gradientUnits="userSpaceOnUse">
<stop stop-color="#52C1AD"/>
<stop offset="1" stop-color="#DEE89A"/>
</linearGradient>
<linearGradient id="paint2_linear" x1="14.6765" y1="17.9782" x2="14.6765" y2="29.0431" gradientUnits="userSpaceOnUse">
<stop stop-color="#EC413D"/>
<stop offset="0.1668" stop-color="#DA4452"/>
<stop offset="0.5748" stop-color="#B0487A"/>
<stop offset="0.8619" stop-color="#954A92"/>
<stop offset="1" stop-color="#8A4A9D"/>
</linearGradient>
<linearGradient id="paint3_linear" x1="22.7563" y1="15.0276" x2="22.7563" y2="20.9285" gradientUnits="userSpaceOnUse">
<stop stop-color="#F58879"/>
<stop offset="0.1194" stop-color="#F69079"/>
<stop offset="0.7128" stop-color="#FCB877"/>
<stop offset="1" stop-color="#FEC874"/>
</linearGradient>
<clipPath id="clip0">
<rect width="99" height="32.4407" fill="white" transform="translate(0.237305 0.74707)"/>
</clipPath>
</defs>
</svg>
